<svg xmlns="http://www.w3.org/2000/svg" width="65" height="67" viewBox="0 0 65 67">
  <defs>
    <style>
      .cls-1 {
        fill-rule: evenodd;
      }
    </style>
  </defs>
  <path id="江湖_夜雨" data-name="江湖 夜雨" class="cls-1" d="M29.473,30.348L27.84,27.614l-1.367,1.234h-5.1V6.142h7.635L27.373,3.375l-1.4,1.267H9.536l0.733,1.5h6.3v22.7h-8.4l0.733,1.5H29.473Zm-25.205.6c2.4-3.3,4.5-13.07,4.7-21.038-2.234,7.535-6.235,15.037-9.2,18.237l2.867,2.934A1.021,1.021,0,0,0,4.268,30.948ZM6.2,14.378c1.567-1.467-1.634-3.834-6-4.734a22.647,22.647,0,0,1,2.867,7.768Zm1.734-7.2c1.867-1.6-1.267-3.934-6.3-4.634A18.338,18.338,0,0,1,4.9,9.743ZM59.372,24.213c0,3.234-.733,3.934-2.934,3.834l2.034,2.8a1.626,1.626,0,0,0,2,.334c2.067-.967,3.1-3,3.1-7.335V5.209l0.6-1.267L59.906,2.675l-0.567,1.1H57.605V3.509l1.2-.934-5.4-.733V14.978c0,6.6-.367,12.769-1.9,16.537,3.067-2.567,5-6.068,5.768-11.5h2.1v4.2Zm-6.3-14.47-1.7-2.767L50.037,8.243H49.6v-4.9l1.067-.9-5.534-.6v6.4h-3.4l0.834,1.5h2.567v6.2l-2.467-.367V28.914H46.5V26.947h1.6v1.334H52v-9.8l0.867-1.334L49.6,16.078V9.743h3.467Zm-14.536,20.9c1.967-3.3,3.6-13.3,3.3-21.271-1.567,7.535-4.8,14.97-7.368,18.2l2.6,3.234A0.842,0.842,0,0,0,38.535,30.648Zm1.434-16.737c1.4-1.467-1.534-3.767-5.4-4.768a23.287,23.287,0,0,1,2.6,7.7Zm0.8-7.235c1.667-1.534-1.5-3.7-5.7-4.6A19.578,19.578,0,0,1,38,9.243ZM46.5,18.445h1.6V25.38H46.5V18.445Zm11.1-4.4v-1.4h1.767v5.835H57.439C57.572,17.145,57.605,15.645,57.605,14.044Zm0-8.769h1.767v5.868H57.605V5.276ZM8.736,64.515a25.735,25.735,0,0,0,10.135-4.468,16.968,16.968,0,0,0,5.9,4.3c1.334,0.567,1.934.267,2.634-.934l2.167-3.6a24.276,24.276,0,0,1-7.6-2.4,28.26,28.26,0,0,0,5.8-8.8l1.667-1.967-5.334-3-1,1.334H17.8a14.691,14.691,0,0,0,.934-1.734,0.865,0.865,0,0,0-.467-1.234l-4.334-1.034c-0.9,4.034-3.034,10.269-5.368,13.57a20.047,20.047,0,0,0,4.7-3.667,31.2,31.2,0,0,0,3.5,6.535A40.533,40.533,0,0,1,8.736,64.515Zm1.9-21.138a0.8,0.8,0,0,0-.367-1.167l-4.5-1.2c-0.8,4.067-3.434,10.636-6.068,13.7a26.793,26.793,0,0,0,3.667-2.7V64.581h4.8V49.711l1.567-1.067-2.6-.3A22.046,22.046,0,0,0,10.636,43.377Zm18.871-2.8L27.84,37.809l-1.367,1.267H16.637L18.3,37.742c1.267-1.067-1.5-2.934-7-2.834a14.059,14.059,0,0,1,2.967,4.167H0.7l0.8,1.5H29.507Zm-9.2,10.5c0.933-.867.533-2.867-3.768-4.068l0.333-.533h6.035a26.968,26.968,0,0,1-4.268,8.6,23.08,23.08,0,0,1-4.334-5.3c0.533-.6,1.067-1.267,1.6-1.934a21.026,21.026,0,0,1,1.934,5.535Zm16.463,13.6h4.668V43.643h5.5V64.314h4.8V43.643h5.5v13.4c0,2.934-.867,3.8-3.4,3.467l2.534,3.5c0.567,0.734,1.1.9,2.2,0.4,2.334-1,3.334-4.1,3.334-8.435V44.144L63.04,42.61l-5-1.867-0.8,1.4h-5.5v-4H63.773l-1.667-2.767-1.367,1.267H34.9l0.767,1.5H46.936v4h-5.5v-0.2l1.334-1.1-6-.733V64.681Zm9.169-15.2c1.334-.667-0.434-3.567-4.068-4.734A17.234,17.234,0,0,1,43.1,51.178Zm10.269,7.935c1.334-.667-0.433-3.6-4.067-4.768a17.588,17.588,0,0,1,1.234,6.468Zm0-7.935c1.334-.667-0.433-3.567-4.067-4.734a17.238,17.238,0,0,1,1.234,6.435ZM45.936,57.413c1.334-.667-0.434-3.6-4.068-4.768A17.584,17.584,0,0,1,43.1,59.113Z"/>
</svg>
